<svg
    width="20"
    height="18"
    viewBox="0 0 20 18"
    fill="none"
    xmlns="http://www.w3.org/2000/svg"
>
    <path
        id="TV-Guide"
        fillRule="evenodd"
        clipRule="evenodd"
        d="M18.125 0.458313H1.875C0.840037 0.45969 0.0013772 1.29835 0 2.33331V11.5C0.0013772 12.5349 0.840037 13.3736 1.875 13.375H8.54167C8.77179 13.375 8.95833 13.5615 8.95833 13.7916V15.0416C8.95833 15.2718 8.77179 15.4583 8.54167 15.4583H6.04167C5.46637 15.4583 5 15.9247 5 16.5C5 17.0753 5.46637 17.5416 6.04167 17.5416H13.9583C14.5336 17.5416 15 17.0753 15 16.5C15 15.9247 14.5336 15.4583 13.9583 15.4583H11.4583C11.2282 15.4583 11.0417 15.2718 11.0417 15.0416V13.7916C11.0417 13.5615 11.2282 13.375 11.4583 13.375H18.125C19.16 13.3736 19.9986 12.5349 20 11.5V2.33331C19.9986 1.29835 19.16 0.45969 18.125 0.458313ZM17.9167 10.875C17.9167 11.1051 17.7301 11.2916 17.5 11.2916H2.5C2.26988 11.2916 2.08333 11.1051 2.08333 10.875V2.95831C2.08333 2.72819 2.26988 2.54165 2.5 2.54165H17.5C17.7301 2.54165 17.9167 2.72819 17.9167 2.95831V10.875Z"
        fill="#8d8d8c"
    />
</svg>